<svg width="1536" height="1503" viewBox="0 0 1536 1503" fill="none" xmlns="http://www.w3.org/2000/svg">
<g opacity="0.2" clip-path="url(#clip0)">
<path d="M1568.17 1027.93C1562.59 1032.81 1561.99 1039.1 1566.37 1043.17L1497 1106.13L1279.13 1128.7L1150.34 1277.87L1197.71 1399.58L1119.51 1472.83L985.769 1473.64L985.238 1473.52L908.666 1561.67L934.032 1599.86L880.049 1655.16L799.99 1647.25L799.459 1647.13L721.44 1745.28C719.642 1744.6 718.253 1744.56 717.927 1744.76C717.48 1745.5 718.952 1746.39 721.16 1747.74C723.164 1748.75 725.288 1749.24 725.736 1748.5C726.062 1748.29 725.242 1746.99 723.77 1746.1L802.199 1648.59L882.462 1656.83L937.75 1600.71L912.058 1562.72L988.387 1475.63L1122.01 1475.36L1122.86 1475.28L1203.02 1400.79L1155.98 1278.88L1283.63 1132.25L1501.71 1110L1574.1 1046.05C1581.33 1047.42 1590.35 1045.84 1596.26 1040.76C1603.27 1034.54 1602.52 1026.82 1595.03 1022.88C1586.78 1019.88 1575.18 1021.71 1568.17 1027.93Z" fill="url(#paint0_radial)"/>
<path d="M1488.63 1059.96L1254.22 1093.41L1108.23 1273.86L1158.08 1394.46L1099.98 1451.9L965.468 1453.64L881.987 1556.14L908.005 1593.93L864.378 1641.81L783.872 1634.63L754.152 1674.24C752.353 1673.55 750.434 1673.39 749.781 1673.8C749.334 1674.54 750.685 1675.96 753.424 1677.42C755.959 1678.56 758.409 1678.84 758.857 1678.1C759.305 1677.37 758.159 1676.27 756.481 1675.05L785.876 1635.65L866.792 1643.48L911.602 1595.3L885.584 1557.52L968.496 1456.29L1103.34 1454.34L1163.19 1395.35L1113.34 1274.74L1258.39 1097.16L1492.89 1064.56L1569.62 994.048C1576.2 995.827 1584.16 994.009 1589.09 989.546C1594.79 984.141 1593.92 976.957 1586.64 973.343C1579.37 969.728 1568.96 971.266 1563.25 976.671C1558.65 980.93 1558.7 986.809 1562.87 990.554L1488.63 1059.96Z" fill="url(#paint1_radial)"/>
<path d="M696.506 1734.57C696.627 1734.04 696.012 1733.06 694.214 1732.37L769.477 1625.49L849.573 1632.01L888.633 1586.99L862.083 1549.09L946.284 1439.77L1079.12 1436.81L1079.98 1436.72L1129.15 1385.35L1076.85 1264.47L1226.56 1068.95L1468.14 1015.78C1471.46 1019.61 1477.92 1021.92 1484.36 1020.59C1492.53 1019.1 1497.17 1013.46 1495.4 1007.74C1493.31 1002.24 1485.17 998.707 1477.21 1000.52C1470.76 1001.85 1466.16 1006.11 1466.25 1010.6L1222.18 1064.88L1072.07 1263.38L1124.7 1384.06L1105.22 1404.48L1023.71 1225.54L1086.99 1130.72C1091.45 1132.02 1095.86 1131.07 1097.85 1128.45C1100.29 1125.1 1097.75 1120.33 1092.48 1117.73C1087.2 1115.13 1081.2 1115.71 1078.76 1119.07C1076.97 1122.01 1078.37 1125.68 1081.93 1128.45L1017.75 1224.74L1101.92 1407.92L1076.5 1434.81L942.808 1437.86L910.562 1479.96L893.552 1452.9L943.578 1381.88L1006.3 1378.86C1008.59 1381.06 1012.72 1382.56 1015.82 1382.43C1019.78 1382.21 1020.92 1379.68 1019.07 1376.74C1016.9 1374.01 1011.83 1371.74 1008.2 1371.75C1005.1 1371.88 1003.55 1373.76 1004.45 1375.92L940.55 1379.24L889.956 1451.52L909.014 1481.84L858.691 1548.04L885.567 1585.74L854.124 1621.87L806.65 1559.36L844.259 1504.8L833.564 1489.23C835.81 1489.18 836.379 1487.92 835.15 1485.96C833.715 1483.68 829.913 1481.97 826.726 1481.24C823.744 1480.84 822.318 1482.2 823.753 1484.48C824.982 1486.43 827.722 1487.9 830.377 1488.5L840.662 1503.42L803.258 1558.31L852.902 1623.55L847.16 1630.34L767.39 1623.61L720.58 1690.33L710.304 1679.05L755.679 1610.05L814.128 1614.71L816.896 1611.15C819.226 1611.96 821.146 1612.12 821.919 1611.18C822.693 1610.24 820.932 1608.16 817.867 1606.9C815.127 1605.44 812.145 1605.04 811.372 1605.98C810.924 1606.72 811.949 1608.35 813.952 1609.36L811.51 1612.72L753.266 1608.38L707.974 1678.24L720.132 1691.07L692.211 1731.36C690.412 1730.67 689.024 1730.63 688.697 1730.84C688.25 1731.57 689.722 1732.47 691.93 1733.81C694.26 1734.62 695.853 1734.98 696.506 1734.57Z" fill="url(#paint2_radial)"/>
<path d="M563.39 1669.02C563.511 1668.49 562.365 1667.39 560.893 1666.5L591.626 1569.85L571.157 1548.15L582.295 1507.94L615.089 1508.71C616.971 1510.26 619.832 1511.19 621.221 1511.23C623.467 1511.18 623.504 1509.79 621.417 1507.92C619.33 1506.05 616.06 1504.46 613.814 1504.51C612.099 1504.68 611.652 1505.41 612.676 1507.04L579.23 1506.68L568.539 1546.15L539.556 1515.24L552.806 1452.33L597.194 1451.27L610.962 1400.77L641.472 1438.45L633.563 1462.07C631.234 1461.26 628.988 1461.31 628.745 1462.37C628.176 1463.64 630.468 1465.84 633.413 1467.63C636.683 1469.21 639.46 1469.29 639.703 1468.22C639.946 1467.16 638.716 1465.2 636.508 1463.86L644.538 1439.71L611.653 1398.97L626.27 1344.75L588.998 1296.3L611.299 1191.31L683.303 1176.99C686.126 1179.31 690.254 1180.81 692.621 1180.23C695.846 1179.57 696.574 1176.38 693.667 1173.21C690.76 1170.03 685.691 1167.76 682.467 1168.42C679.568 1168.87 678.757 1171.2 680.396 1173.81L607.33 1187.89L585.597 1291.61L551.52 1247.53L564.402 1166.65L684.282 1140.89L732.314 966.054L588.786 705.08L595.566 652.147C600.347 653.237 604.466 651.103 605.027 646.201C605.83 640.238 601.321 633.064 595.106 629.691C589.096 626.645 583.262 628.947 582.459 634.91C581.898 639.811 585.056 645.56 589.556 649.1L582.822 704.28L727.207 965.17L680.844 1137.6L560.965 1163.35L548.249 1245.94L622.795 1342.84L594.575 1449.28L550.188 1450.33L537.348 1513.9L589.296 1569.04L558.889 1665.48C557.091 1664.79 556.029 1664.55 555.581 1665.29C555.46 1665.82 556.811 1667.24 558.814 1668.26C561.144 1669.07 563.268 1669.55 563.39 1669.02Z" fill="url(#paint3_radial)"/>
<path d="M540.279 708.271L687.675 964.539L653.379 1109.82L534.281 1138.27L521.168 1243.4L596.488 1339.36L575.14 1432.83L530.957 1434.21L518.226 1509.54L570.5 1564.48L564.101 1587.61C562.303 1586.92 560.709 1586.55 560.467 1587.62C560.224 1588.68 562.106 1590.22 564.641 1591.36C567.175 1592.5 569.3 1592.98 569.542 1591.92C569.664 1591.39 568.639 1589.76 566.636 1588.74L573.361 1565.41L521.086 1510.47L534.228 1435.8L578.411 1434.42L600.858 1339.79L525.539 1243.84L538.167 1140.83L657.469 1112.71L692.782 965.424L546.038 708.746L566.609 490.21C571.921 491.42 576.283 488.224 576.76 482.466C577.274 475.319 572.477 466.962 565.731 463.468C558.985 459.975 552.908 463.339 552.393 470.485C551.916 476.244 555.363 483.176 560.273 487.368L540.279 708.271Z" fill="url(#paint4_radial)"/>
<path d="M534.28 1654.56C534.401 1654.03 533.256 1652.93 531.783 1652.04L555.051 1558.72L502.245 1503.66L513.739 1422.75L557.511 1420.71L575.522 1332.06L498.814 1236.07L510.066 1120.73L627.812 1090.86L655.601 956.948L504.98 701.341C509.229 702.31 512.818 700.055 512.931 695.89C513.286 690.663 508.983 683.815 502.973 680.768C497.167 678.048 491.985 679.94 491.835 685.493C491.396 689.863 494.675 695.081 499.175 698.621L499.137 700.01L650.616 955.532L623.843 1087.44L506.628 1117.44L506.301 1117.64L495.422 1235.02L572.13 1331.01L554.567 1418.92L510.794 1420.96L499.589 1503.05L552.395 1558.12L529.78 1651.02C527.982 1650.34 526.919 1650.09 526.798 1650.62C526.677 1651.16 528.028 1652.58 530.562 1653.72C532.239 1654.94 534.159 1655.1 534.28 1654.56Z" fill="url(#paint5_radial)"/>
<path d="M612.654 1693.11C612.775 1692.58 611.834 1691.8 610.157 1690.58L621.291 1666.3L651.232 1669.77L712.38 1551.29L725.082 1551.95C726.964 1553.49 729.824 1554.42 731.744 1554.58C733.99 1554.54 734.559 1553.27 732.472 1551.4C730.59 1549.85 727.114 1547.94 724.868 1547.99C722.949 1547.83 722.175 1548.77 723.526 1550.19L709.967 1549.62L648.698 1668.64L621.534 1665.24L671.02 1554.99L652.062 1532.79L671.105 1484.88L707.449 1484.79L738.939 1415.41L702.561 1365.49L707.961 1351.64L814.118 1343.15L865.14 1243.31C868.532 1244.36 871.961 1244.03 873.304 1241.82C874.441 1239.28 871.982 1235.37 867.649 1233.54C863.111 1231.39 858.619 1231.48 857.482 1234.02C856.465 1236.02 857.984 1239.16 861.133 1241.28L811.295 1340.83L709.63 1349.22L737.841 1274.63L807.448 1265.92L930.32 995.828L884.554 894.037C888.347 892.108 889.848 887.98 887.715 883.862C885.294 878.561 878.874 874.862 873.403 875.571C867.933 876.279 865.331 881.553 867.753 886.855C869.765 891.504 874.386 894.513 879.288 895.072L924.682 994.822L815.917 1237.4L783.613 1183.1L830.829 1061.99L750.847 909.375L783.571 790.555L772.451 767.066C776.039 764.811 777.336 760.357 774.914 755.056C772.083 749.102 764.927 744.956 759.661 745.991C754.069 747.23 752.204 752.952 755.035 758.905C757.252 763.881 762.609 767.337 767.306 767.57L777.524 788.897L745.452 907.307L825.76 1059.72L777.566 1181.44L812.944 1240.63L802.826 1262.91L763.144 1267.83L732.283 1219.45L768.189 1117.28C772.113 1118.45 775.337 1117.79 776.27 1114.93C777.529 1111.86 774.333 1107.5 769.591 1105.02C764.848 1102.55 760.235 1103.17 759.181 1106.56C758.369 1108.89 760.297 1112.68 763.652 1115.13L728.034 1218.48L760.041 1267.96L733.545 1271.42L699.17 1364.44L735.547 1414.36L717.345 1454.91L657.053 1376.35L683.085 1295.4L655.595 1256.72C657.962 1256.15 658.121 1254.23 656.481 1251.62C654.637 1248.68 649.894 1246.2 646.586 1246.01C643.278 1245.81 642.14 1248.35 644.311 1251.08C645.95 1253.69 649.426 1255.6 652.613 1256.32L679.283 1293.69L653.456 1374.97L716.329 1456.92L704.505 1483L668.16 1483.09L648.875 1532.06L668.16 1554.06L626.477 1648.48L607.034 1628.41L626.114 1579.11C628.117 1580.13 629.832 1579.96 630.28 1579.23C630.522 1578.16 628.966 1576.41 626.432 1575.28C623.897 1574.14 621.447 1573.86 620.999 1574.6C620.552 1575.33 621.902 1576.76 623.906 1577.77L605.03 1627.39L626.561 1649.34L608.685 1689.69C606.887 1689 605.498 1688.96 605.377 1689.49C605.256 1690.02 606.606 1691.45 608.61 1692.46C610.408 1693.15 612.207 1693.84 612.654 1693.11Z" fill="url(#paint6_radial)"/>
<path d="M654.109 1713.45C654.23 1712.92 653.289 1712.15 651.817 1711.25L725.231 1581.87L754.474 1583.51L782.304 1538.73L760.309 1510.25L796.831 1444.54L859.186 1443.11L913.185 1359.59L878.581 1299.45L1022.47 1042.54L1150.68 1013.37L1151.86 1013.08L1187.43 958.89C1192.74 960.101 1198.33 958.862 1200.89 954.976C1203.91 950.354 1201.4 944.196 1195.39 941.149C1189.38 938.103 1181.54 939.389 1178.53 944.011C1175.97 947.897 1177.65 952.751 1181.62 956.17L1146.95 1008.89L1018.75 1038.06L1017.89 1038.14L874.21 1299.02L908.814 1359.15L890.951 1387.21L778.458 1392.85L777.927 1392.73L744.229 1460.76C741.368 1459.83 739.122 1459.88 738.553 1461.14C737.984 1462.41 739.95 1464.82 743.221 1466.4C746.491 1467.98 749.8 1468.18 750.368 1466.91C750.937 1465.64 749.708 1463.69 747.173 1462.55L780.955 1395.38L889.487 1389.95L856.241 1441.32L793.886 1442.75L757.122 1509.52L779.117 1538L752.061 1581.84L722.818 1580.21L649.814 1710.24C648.015 1709.55 646.627 1709.51 646.3 1709.72C646.179 1710.25 647.53 1711.67 649.533 1712.69C652.068 1713.83 653.661 1714.19 654.109 1713.45Z" fill="url(#paint7_radial)"/>
</g>
<defs>
<radialGradient id="paint0_radial" cx="0" cy="0" r="1" gradientUnits="userSpaceOnUse" gradientTransform="translate(754.859 1024.51) rotate(-63.7383) scale(771.811 771.675)">
<stop offset="0.1757" stop-color="#BDDBFF"/>
<stop offset="0.4767" stop-color="#6EAFFB"/>
<stop offset="0.5888" stop-color="#1A83FF"/>
<stop offset="0.6973" stop-color="#00516E"/>
<stop offset="0.7957" stop-color="#002E3F"/>
<stop offset="0.8821" stop-color="#00151C"/>
<stop offset="0.9531" stop-color="#001120"/>
<stop offset="1" stop-color="#001226"/>
</radialGradient>
<radialGradient id="paint1_radial" cx="0" cy="0" r="1" gradientUnits="userSpaceOnUse" gradientTransform="translate(754.86 1024.51) rotate(-63.7383) scale(771.809 771.673)">
<stop offset="0.1757" stop-color="#B0D5FF"/>
<stop offset="0.4767" stop-color="#6EAFFB"/>
<stop offset="0.5888" stop-color="#268AFF"/>
<stop offset="0.6973" stop-color="#00516E"/>
<stop offset="0.7957" stop-color="#002E3F"/>
<stop offset="0.8821" stop-color="#000E29"/>
<stop offset="0.9531" stop-color="#000F35"/>
<stop offset="1" stop-color="#001226"/>
</radialGradient>
<radialGradient id="paint2_radial" cx="0" cy="0" r="1" gradientUnits="userSpaceOnUse" gradientTransform="translate(754.858 1024.51) rotate(-63.7383) scale(771.809 771.673)">
<stop offset="0.1757" stop-color="#B8D9FF"/>
<stop offset="0.4767" stop-color="#6EAFFB"/>
<stop offset="0.5888" stop-color="#3391FF"/>
<stop offset="0.6973" stop-color="#00516E"/>
<stop offset="0.7957" stop-color="#002E3F"/>
<stop offset="0.8821" stop-color="#011B42"/>
<stop offset="0.9531" stop-color="#01122B"/>
<stop offset="1" stop-color="#00162F"/>
</radialGradient>
<radialGradient id="paint3_radial" cx="0" cy="0" r="1" gradientUnits="userSpaceOnUse" gradientTransform="translate(754.857 1024.51) rotate(-63.7383) scale(771.813 771.676)">
<stop offset="0.1757" stop-color="#C6E0FF"/>
<stop offset="0.4767" stop-color="#6EAFFB"/>
<stop offset="0.5888" stop-color="#268AFF"/>
<stop offset="0.6973" stop-color="#1B84FF"/>
<stop offset="0.7957" stop-color="#13366C"/>
<stop offset="0.8821" stop-color="#162856"/>
<stop offset="0.9531" stop-color="#001857"/>
<stop offset="1" stop-color="#001330"/>
</radialGradient>
<radialGradient id="paint4_radial" cx="0" cy="0" r="1" gradientUnits="userSpaceOnUse" gradientTransform="translate(754.857 1024.51) rotate(-63.7383) scale(771.812 771.676)">
<stop offset="0.1757" stop-color="#ACD2FF"/>
<stop offset="0.4767" stop-color="#6EAFFB"/>
<stop offset="0.5888" stop-color="#2489FF"/>
<stop offset="0.6973" stop-color="#22367D"/>
<stop offset="0.7957" stop-color="#002E3F"/>
<stop offset="0.8821" stop-color="#00336F"/>
<stop offset="0.9531" stop-color="#001F4E"/>
<stop offset="1" stop-color="#001731"/>
</radialGradient>
<radialGradient id="paint5_radial" cx="0" cy="0" r="1" gradientUnits="userSpaceOnUse" gradientTransform="translate(754.856 1024.51) rotate(-63.7383) scale(771.813 771.676)">
<stop offset="0.1757" stop-color="#C5E0FF"/>
<stop offset="0.4767" stop-color="#6EAFFB"/>
<stop offset="0.5888" stop-color="#3C96FF"/>
<stop offset="0.6973" stop-color="#1C85FF"/>
<stop offset="0.7957" stop-color="#0F4B92"/>
<stop offset="0.8821" stop-color="#092753"/>
<stop offset="0.9531" stop-color="#002950"/>
<stop offset="1" stop-color="#001329"/>
</radialGradient>
<radialGradient id="paint6_radial" cx="0" cy="0" r="1" gradientUnits="userSpaceOnUse" gradientTransform="translate(754.857 1024.51) rotate(-63.7383) scale(771.814 771.678)">
<stop offset="0.1757" stop-color="#C1DEFF"/>
<stop offset="0.4767" stop-color="#6EAFFB"/>
<stop offset="0.5888" stop-color="#308FFF"/>
<stop offset="0.6973" stop-color="#0D7CFF"/>
<stop offset="0.7957" stop-color="#13366C"/>
<stop offset="0.8821" stop-color="#041339"/>
<stop offset="0.9531" stop-color="#001431"/>
<stop offset="1" stop-color="#001731"/>
</radialGradient>
<radialGradient id="paint7_radial" cx="0" cy="0" r="1" gradientUnits="userSpaceOnUse" gradientTransform="translate(754.859 1024.51) rotate(-63.7383) scale(771.81 771.673)">
<stop offset="0.1757" stop-color="#B3D6FF"/>
<stop offset="0.4767" stop-color="#6EAFFB"/>
<stop offset="0.5888" stop-color="#2D8EFF"/>
<stop offset="0.6973" stop-color="#00516E"/>
<stop offset="0.7957" stop-color="#002E3F"/>
<stop offset="0.8821" stop-color="#00151C"/>
<stop offset="0.9531" stop-color="#000E28"/>
<stop offset="1" stop-color="#041B37"/>
</radialGradient>
<clipPath id="clip0">
<rect width="1183.94" height="1528.09" fill="white" transform="translate(629.963 1815.51) rotate(-122.147)"/>
</clipPath>
</defs>
</svg>
