<svg width="83" height="24" viewBox="0 0 83 24" fill="none" xmlns="http://www.w3.org/2000/svg">
<path d="M3 12H73" stroke="url(#paint0_linear)" stroke-width="5" stroke-linecap="round"/>
<path d="M77.5 12L65.5 3.5V20.5L77.5 12Z" fill="#4997F2"/>
<path d="M64.536 21.886C64.6978 21.9702 64.8794 22.0087 65.0614 21.9974C65.2434 21.9861 65.4189 21.9255 65.569 21.822L78.569 12.822C78.7018 12.73 78.8104 12.6071 78.8854 12.464C78.9604 12.3208 78.9995 12.1616 78.9995 12C78.9995 11.8384 78.9604 11.6792 78.8854 11.5361C78.8104 11.3929 78.7018 11.2701 78.569 11.178L65.569 2.17803C65.4191 2.07348 65.2435 2.01209 65.0611 2.00053C64.8787 1.98898 64.6967 2.02771 64.5349 2.11251C64.373 2.19731 64.2375 2.32491 64.1432 2.48141C64.0489 2.63791 63.9994 2.8173 64 3.00003V21C64 21.1826 64.0499 21.3616 64.1444 21.5178C64.2389 21.674 64.3743 21.8013 64.536 21.886ZM66 4.90903L76.243 12L66 19.091V4.90903Z" fill="#4997F2"/>
<defs>
<linearGradient id="paint0_linear" x1="59.5" y1="12.5" x2="-36" y2="9.99996" gradientUnits="userSpaceOnUse">
<stop stop-color="#1681FF"/>
<stop offset="0.927083" stop-opacity="0"/>
</linearGradient>
</defs>
</svg>
