<svg width="18" height="14" viewBox="0 0 18 14" fill="none" xmlns="http://www.w3.org/2000/svg">
<path d="M14.8334 0.333313H3.16669C2.50365 0.333313 1.86776 0.596705 1.39892 1.06555C0.930079 1.53439 0.666687 2.17027 0.666687 2.83331V11.1666C0.666687 11.8297 0.930079 12.4656 1.39892 12.9344C1.86776 13.4033 2.50365 13.6666 3.16669 13.6666H14.8334C15.4964 13.6666 16.1323 13.4033 16.6011 12.9344C17.07 12.4656 17.3334 11.8297 17.3334 11.1666V2.83331C17.3334 2.17027 17.07 1.53439 16.6011 1.06555C16.1323 0.596705 15.4964 0.333313 14.8334 0.333313ZM14.4917 1.99998L9.59169 6.89998C9.51422 6.97809 9.42205 7.04008 9.3205 7.08239C9.21895 7.1247 9.11003 7.14648 9.00002 7.14648C8.89001 7.14648 8.78109 7.1247 8.67954 7.08239C8.57799 7.04008 8.48582 6.97809 8.40835 6.89998L3.50835 1.99998H14.4917ZM15.6667 11.1666C15.6667 11.3877 15.5789 11.5996 15.4226 11.7559C15.2663 11.9122 15.0544 12 14.8334 12H3.16669C2.94567 12 2.73371 11.9122 2.57743 11.7559C2.42115 11.5996 2.33335 11.3877 2.33335 11.1666V3.17498L7.23335 8.07498C7.70211 8.54315 8.33752 8.80611 9.00002 8.80611C9.66252 8.80611 10.2979 8.54315 10.7667 8.07498L15.6667 3.17498V11.1666Z" fill="#F1F1F1"/>
</svg>
