<svg width="41" height="40" viewBox="0 0 41 40" fill="none" xmlns="http://www.w3.org/2000/svg">
<path d="M35.88 22.0001C35.44 22.0001 34.98 21.8601 34.54 21.7601C33.6489 21.5638 32.7733 21.3031 31.92 20.9801C30.9921 20.6426 29.9723 20.6601 29.0566 21.0293C28.1409 21.3985 27.3941 22.0934 26.96 22.9801L26.52 23.8801C24.572 22.7965 22.7819 21.4506 21.2 19.8801C19.6295 18.2981 18.2836 16.5081 17.2 14.5601L18.04 14.0001C18.9267 13.5659 19.6215 12.8192 19.9907 11.9035C20.36 10.9878 20.3775 9.96793 20.04 9.0401C19.7224 8.18495 19.4618 7.3097 19.26 6.4201C19.16 5.9801 19.08 5.5201 19.02 5.0601C18.7771 3.65134 18.0392 2.37559 16.9392 1.46258C15.8392 0.549576 14.4494 0.0593201 13.02 0.0801024H7.01996C6.15802 0.0720093 5.30446 0.249729 4.51738 0.601163C3.7303 0.952597 3.02818 1.46949 2.45882 2.11667C1.88946 2.76384 1.46623 3.52609 1.21793 4.35153C0.96964 5.17697 0.902116 6.04622 1.01996 6.9001C2.08543 15.2789 5.91202 23.0639 11.8953 29.0254C17.8785 34.9869 25.6774 38.7851 34.06 39.8201H34.82C36.2948 39.8223 37.7188 39.2812 38.82 38.3001C39.4527 37.7342 39.9581 37.0405 40.3029 36.2647C40.6477 35.489 40.8239 34.649 40.82 33.8001V27.8001C40.7955 26.4109 40.2896 25.0732 39.3886 24.0154C38.4877 22.9577 37.2476 22.2454 35.88 22.0001ZM36.88 34.0001C36.8796 34.2841 36.8188 34.5647 36.7015 34.8233C36.5843 35.082 36.4133 35.3127 36.2 35.5001C35.9772 35.6941 35.7159 35.8389 35.4333 35.9251C35.1507 36.0113 34.8531 36.0368 34.56 36.0001C27.0698 35.0397 20.1124 31.6131 14.7854 26.2607C9.45835 20.9083 6.06478 13.9348 5.13996 6.4401C5.10813 6.14714 5.13602 5.85076 5.22196 5.56888C5.3079 5.28701 5.4501 5.02548 5.63996 4.8001C5.82738 4.58677 6.05808 4.41579 6.31672 4.29854C6.57535 4.18129 6.85599 4.12046 7.13996 4.1201H13.14C13.6051 4.10975 14.0592 4.26186 14.4242 4.55024C14.7893 4.83863 15.0424 5.24524 15.14 5.7001C15.22 6.24677 15.32 6.78677 15.44 7.3201C15.671 8.37439 15.9785 9.41046 16.36 10.4201L13.56 11.7201C13.3206 11.8299 13.1052 11.986 12.9263 12.1793C12.7473 12.3726 12.6084 12.5993 12.5173 12.8465C12.4262 13.0937 12.3849 13.3564 12.3957 13.6195C12.4064 13.8827 12.469 14.1412 12.58 14.3801C15.4584 20.5456 20.4144 25.5017 26.58 28.3801C27.0669 28.5801 27.613 28.5801 28.1 28.3801C28.3494 28.2909 28.5786 28.153 28.7743 27.9745C28.97 27.7959 29.1283 27.5803 29.24 27.3401L30.48 24.5401C31.5139 24.9099 32.5691 25.2171 33.64 25.4601C34.1733 25.5801 34.7133 25.6801 35.26 25.7601C35.7148 25.8577 36.1214 26.1108 36.4098 26.4758C36.6982 26.8409 36.8503 27.295 36.84 27.7601L36.88 34.0001Z" fill="#F1F1F1"/>
</svg>
