<svg width="66" height="72" viewBox="0 0 66 72" fill="none" xmlns="http://www.w3.org/2000/svg">
<path d="M59.16 24.0001L20.52 1.8401C18.4291 0.632742 16.056 0.000255977 13.6416 0.00688755C11.2272 0.0135191 8.85751 0.659032 6.77331 1.87786C4.68911 3.09669 2.96462 4.84542 1.77498 6.94641C0.585347 9.04741 -0.0270464 11.4258 4.35289e-06 13.8401V58.3201C4.35289e-06 61.9483 1.44129 65.4278 4.00678 67.9933C6.57228 70.5588 10.0518 72.0001 13.68 72.0001C16.0818 71.996 18.4404 71.3616 20.52 70.1601L59.16 48.0001C61.2362 46.7985 62.96 45.072 64.1583 42.9939C65.3567 40.9157 65.9875 38.559 65.9875 36.1601C65.9875 33.7612 65.3567 31.4045 64.1583 29.3264C62.96 27.2482 61.2362 25.5217 59.16 24.3201V24.0001ZM55.16 40.7601L16.52 63.2401C15.6539 63.7309 14.6755 63.9889 13.68 63.9889C12.6845 63.9889 11.7061 63.7309 10.84 63.2401C9.97639 62.7415 9.25927 62.0243 8.76074 61.1607C8.26221 60.297 7.99983 59.3173 8 58.3201V13.6801C7.99983 12.6829 8.26221 11.7032 8.76074 10.8396C9.25927 9.9759 9.97639 9.25871 10.84 8.76011C11.7096 8.27673 12.6852 8.01566 13.68 8.0001C14.6741 8.02051 15.6486 8.28127 16.52 8.76011L55.16 31.0801C56.0239 31.5785 56.7414 32.2956 57.2402 33.1593C57.7391 34.0229 58.0017 35.0027 58.0017 36.0001C58.0017 36.9975 57.7391 37.9773 57.2402 38.841C56.7414 39.7046 56.0239 40.4217 55.16 40.9201V40.7601Z" fill="#F1F1F1"/>
</svg>
