<svg width="968" height="1029" viewBox="0 0 968 1029" fill="none" xmlns="http://www.w3.org/2000/svg">
<path opacity="0.3" d="M484.813 -104.923C525.239 -104.923 565.357 -104.923 605.783 -104.923C653.558 -104.616 690.921 -76.0229 703.783 -29.9055C751.252 138.884 798.721 307.674 845.884 476.464C885.084 615.739 924.284 755.013 962.872 894.288C980.328 957.007 952.153 1011.43 894.578 1025.57C882.94 1028.34 870.384 1028.34 858.134 1028.64C806.071 1028.95 754.008 1027.72 701.946 1028.95C653.864 1030.18 617.42 1008.35 587.408 974.225C546.676 928.107 528.914 871.536 520.032 812.199C515.132 780.839 513.907 749.172 511.457 717.504C510.845 709.203 508.395 706.129 499.82 705.514C458.476 703.054 459.394 703.054 457.251 743.945C453.269 814.043 441.632 882.297 404.882 943.787C381.607 982.833 349.144 1011.43 305.044 1025.26C299.837 1026.8 294.019 1028.34 288.506 1028.34C221.743 1028.34 154.674 1029.87 87.9115 1027.41C29.7237 1025.26 -12.539 962.234 3.38611 906.278C9.81739 884.142 15.6362 862.006 21.7612 839.562C55.7551 718.427 90.0553 597.599 123.743 476.464C158.656 354.406 192.649 231.734 226.95 109.062C240.425 60.7921 253.9 12.5226 267.987 -35.4396C280.237 -76.9452 317.294 -104.308 360.781 -104.616C402.125 -105.231 443.469 -104.923 484.813 -104.923ZM532.282 529.653C531.976 517.97 532.589 505.979 531.976 494.296C530.139 464.473 521.257 437.11 499.82 415.281C489.713 404.828 480.526 403.906 470.113 414.974C453.882 431.576 442.551 451.253 440.407 474.312C437.651 504.442 437.957 534.572 436.119 564.702C435.813 570.236 433.057 578.537 428.769 580.382C409.475 590.22 403.657 598.829 403.657 619.428C403.657 628.959 407.332 632.648 417.132 633.571C425.401 634.493 435.507 637.26 441.326 642.794C450.819 652.018 460.619 656.629 473.788 655.707C483.282 654.785 493.388 656.629 502.882 655.092C509.313 654.17 516.97 651.71 521.563 647.098C530.751 638.182 539.632 631.418 553.414 632.648C557.089 632.956 563.214 629.266 564.745 625.577C569.951 613.279 561.376 587.761 548.82 584.686C531.976 580.382 531.057 569.929 531.976 556.093C532.895 546.87 532.282 538.261 532.282 529.653Z" fill="url(#paint0_linear)"/>
<defs>
<linearGradient id="paint0_linear" x1="484" y1="-105" x2="484" y2="1029" gradientUnits="userSpaceOnUse">
<stop offset="0.633386" stop-color="#2F5B8E"/>
<stop offset="1" stop-color="#0E2643" stop-opacity="0"/>
</linearGradient>
</defs>
</svg>
