<svg width="730" height="1113" viewBox="0 0 730 1113" fill="none" xmlns="http://www.w3.org/2000/svg">
<g opacity="0.4" clip-path="url(#clip0)">
<path d="M657.159 892.489C659.568 888.572 663.355 887.561 666.296 889.822L697.698 840.909L689.137 705.276L767.185 611.155L846.524 627.638L883.316 572.266L870.073 490.35L869.944 490.037L916.019 434.131L941.993 445.73L970.289 407.02L957.226 358.845L957.097 358.533L1009.15 300.713C1008.54 299.684 1008.38 298.838 1008.47 298.617C1008.87 298.268 1009.57 299.077 1010.62 300.29C1011.44 301.412 1011.96 302.662 1011.55 303.011C1011.46 303.232 1010.58 302.865 1009.88 302.056L958.273 360.059L971.558 408.325L942.893 447.918L917.012 436.099L871.562 491.747L885.117 573.535L885.154 574.068L847.81 630.764L768.38 614.501L691.766 707.666L700.547 843.391L668.851 894.253C670.431 898.537 670.394 904.219 667.893 908.357C664.804 913.285 660.006 913.617 656.826 909.443C654.143 904.699 654.07 897.418 657.159 892.489Z" fill="url(#paint0_radial)"/>
<path d="M668.585 840.527L664.984 693.658L760.406 585.799L839.322 603.919L868.501 562.468L855.754 479.981L909.901 418.374L935.69 430.414L960.511 398.802L947.852 350.278L969.032 328.025C968.426 326.996 968.132 325.837 968.316 325.396C968.72 325.047 969.731 325.727 970.908 327.253C971.863 328.687 972.286 330.158 971.881 330.507C971.477 330.857 970.687 330.269 969.767 329.368L948.679 351.399L961.78 400.107L936.903 432.474L911.114 420.433L857.684 481.562L870.339 564.27L840.387 606.952L761.472 588.833L667.705 695.828L671.839 842.66L636.573 896.854C638.337 900.697 638.042 905.754 635.818 909.229C633.096 913.275 628.611 913.478 625.652 909.396C622.693 905.314 622.565 898.787 625.286 894.741C627.419 891.486 631.022 890.916 633.742 893.085L668.585 840.527Z" fill="url(#paint1_radial)"/>
<path d="M1000.03 286.556C999.719 286.685 999.057 286.409 998.451 285.38L940.776 342.409L952.994 390.749L929.46 419.272L903.541 406.919L845.296 469.667L857.123 551.253L857.16 551.786L830.776 587.15L751.438 567.56L647.173 679.245L639.448 832.529C642.132 834.165 644.209 837.879 644.061 841.961C643.987 847.11 641.008 850.53 637.332 850.034C633.747 849.318 630.752 844.703 631.046 839.646C631.194 835.564 633.327 832.309 636.084 831.904L644.232 676.983L750.28 564.746L829.526 584.557L840.024 570.544L722.158 539.044L670.642 587.504C671.892 590.096 671.763 592.891 670.365 594.381C668.564 596.22 665.383 595.154 663.251 592.194C661.119 589.233 660.863 585.501 662.664 583.662C664.282 582.264 666.672 582.742 668.731 584.635L721.055 535.477L841.79 568.172L855.634 549.856L843.77 467.737L866.219 443.682L847.911 436.054L809.596 473.957L814.186 512.644C815.767 513.821 817.108 516.193 817.347 518.105C817.623 520.551 816.189 521.507 814.203 520.68C812.31 519.632 810.399 516.764 810.031 514.539C809.793 512.626 810.785 511.486 812.201 511.817L807.666 472.376L846.698 433.994L867.212 442.542L902.549 404.952L928.375 417.525L947.258 394.575L904.134 371.945L874.608 400.561L863.983 395.616C864.185 396.995 863.468 397.473 862.144 396.922C860.6 396.279 859.167 394.127 858.395 392.252C857.844 390.468 858.524 389.457 860.068 390.1C861.392 390.652 862.568 392.178 863.211 393.741L873.395 398.502L903.142 369.978L948.159 393.655L951.725 389.444L939.415 341.324L975.432 305.83L967.473 300.701L929.912 335.552L938.768 370.837L936.874 372.897C937.609 374.239 937.903 375.397 937.407 375.967C936.911 376.537 935.458 375.673 934.374 373.927C933.198 372.401 932.647 370.617 933.143 370.047C933.547 369.698 934.65 370.157 935.477 371.279L937.279 369.44L928.644 334.246L966.738 299.359L975.837 305.481L997.624 284.258C997.017 283.228 996.852 282.383 996.944 282.162C997.348 281.812 998.047 282.621 999.094 283.835C999.829 285.177 1000.22 286.115 1000.03 286.556Z" fill="url(#paint2_radial)"/>
<path d="M946.253 211.835C945.94 211.964 945.15 211.375 944.451 210.566L888.471 239.296L873.086 229.001L849.628 239.945L853.468 259.932C854.607 260.925 855.471 262.58 855.636 263.426C855.838 264.805 854.993 264.971 853.633 263.886C852.272 262.801 850.967 260.963 850.765 259.583C850.692 258.517 851.096 258.168 852.199 258.627L848.544 238.199L871.598 227.604L849.706 213.044L812.57 227.612L816.482 254.881L786.994 268.492L813.187 283.291L826.829 276.026C826.093 274.683 825.891 273.304 826.516 273.047C827.233 272.569 828.814 273.745 830.211 275.363C831.516 277.202 831.847 278.894 831.222 279.151C830.597 279.409 829.273 278.857 828.225 277.644L814.272 285.038L785.964 269.099L754.289 283.612L720.816 265.78L658.862 290.208L657.495 335.737C659.205 337.226 660.546 339.598 660.436 341.106C660.362 343.147 658.487 343.92 656.245 342.467C654.002 341.015 652.091 338.147 652.164 336.106C652.146 334.285 653.488 333.549 655.253 334.285L656.362 288.131L717.599 264.181L687.122 247.857L638.957 264.045L635.509 340.043L533.459 387.388L359.032 326.365L327.338 335.949C328.496 338.762 327.613 341.502 324.672 342.349C321.106 343.452 316.253 341.43 313.551 337.974C311.07 334.609 311.879 330.803 315.446 329.699C318.387 328.853 322.229 330.194 324.857 332.585L357.929 322.797L532.393 384.354L633.138 338.278L636.586 262.28L685.817 246.018L752.763 281.681L814.993 253.484L811.081 226.215L848.658 211.83L887.736 237.954L943.624 209.445C943.018 208.415 942.761 207.79 943.165 207.44C943.478 207.312 944.488 207.992 945.316 209.113C946.051 210.456 946.565 211.706 946.253 211.835Z" fill="url(#paint3_radial)"/>
<path d="M356.003 296.356L527.948 360.229L613.323 324.324L618.499 248.528L681.481 229.708L747.93 265.942L802.935 243.28L799.244 216.103L844.027 200.577L883.013 226.922L896.507 220.631C895.901 219.601 895.515 218.664 896.14 218.406C896.765 218.149 897.905 219.141 898.86 220.575C899.816 222.01 900.33 223.26 899.705 223.517C899.393 223.646 898.29 223.187 897.463 222.065L883.877 228.576L844.891 202.232L800.549 217.942L804.24 245.118L748.647 268.571L682.198 232.338L620.465 250.642L615.51 326.53L529.013 363.263L356.884 299.831L225.276 334.86C226.563 337.986 225.055 340.983 221.581 341.866C217.26 342.915 211.654 340.838 208.823 337.069C205.993 333.3 207.427 329.236 211.748 328.187C215.222 327.304 219.818 328.701 222.887 331.275L356.003 296.356Z" fill="url(#paint4_radial)"/>
<path d="M934.416 195.507C934.103 195.636 933.313 195.048 932.615 194.239L877.904 218.059L838.789 191.402L790.458 206.744L793.708 233.738L741.314 253.861L674.699 216.782L605.283 235.511L599.096 310.627L520.009 341.383L348.138 275.468C349.167 277.968 348.155 280.396 345.618 280.893C342.457 281.647 337.824 279.717 335.343 276.352C333.082 273.08 333.708 269.714 337.09 269.052C339.719 268.334 343.249 269.805 345.877 272.195L346.723 272.03L518.63 338.478L596.596 308.549L602.912 233.746L603.004 233.526L673.707 214.815L740.322 251.894L792.311 232.12L789.061 205.127L838.146 189.839L877.261 216.496L931.788 193.117C931.181 192.088 930.924 191.463 931.236 191.334C931.549 191.205 932.56 191.885 933.516 193.319C934.435 194.22 934.729 195.379 934.416 195.507Z" fill="url(#paint5_radial)"/>
<path d="M966.048 239.506C965.736 239.635 965.166 239.138 964.247 238.237L950.532 247.544L955.732 265.508L889.51 315.091L891.218 322.796C892.358 323.789 893.222 325.443 893.516 326.602C893.718 327.981 893.001 328.459 891.64 327.374C890.501 326.381 888.975 324.451 888.773 323.072C888.479 321.913 888.976 321.343 889.987 322.024L888.241 313.786L954.776 264.074L949.907 247.801L887.528 289.404L871.996 280.083L844.64 296.655L848.313 318.904L809.099 345.296L774.817 328.163L766.893 332.89L772.601 398.718L716.748 440.191C717.741 442.158 717.888 444.291 716.674 445.34C715.24 446.296 712.593 445.193 711.031 442.729C709.248 440.174 708.844 437.415 710.278 436.459C711.4 435.631 713.477 436.238 715.094 437.948L770.892 397.229L765.588 334.159L722.844 359.081L724.658 402.568L572.011 505.489L505.026 487.938C504.235 490.457 501.864 491.8 499.125 490.917C495.632 489.98 492.71 486.432 492.581 483.011C492.453 479.591 495.413 477.458 498.906 478.395C501.957 479.149 504.273 481.667 505.118 484.609L570.816 502.142L708.076 410.679L671.532 396.489L602.278 437.817L500.681 404.549L431.336 436.774L415.821 432.382C414.81 434.809 412.218 436.06 408.725 435.123C404.791 434.002 401.52 430.049 401.612 426.72C401.796 423.171 405.106 421.442 409.039 422.564C412.311 423.409 414.977 426.332 415.601 429.182L429.7 433.244L498.861 401.46L600.367 434.948L669.897 392.959L709.749 408.528L722.342 400.049L721.28 375.262L688.505 361.347L629.675 393.81C630.796 396.09 630.722 398.131 629.068 398.996C627.321 400.081 624.325 398.574 622.321 395.926C620.318 393.278 620.227 390.391 622.194 389.398C623.536 388.663 626.054 389.453 627.892 391.255L687.476 358.847L721.041 373.35L720.436 356.782L773.825 326.196L808.106 343.328L831.05 328.026L776.788 299.202L729.927 323.444L703.439 310.594C703.328 312.102 702.17 312.396 700.405 311.661C698.42 310.834 696.417 308.186 695.957 306.182C695.498 304.178 696.932 303.222 698.825 304.269C700.59 305.005 702.115 306.935 702.887 308.811L728.493 321.293L775.575 297.142L832.172 327.199L846.916 317.286L843.243 295.037L871.224 278.208L886.664 287.749L940.163 252.547L925.881 242.711L897.679 259.448C898.506 260.57 898.58 261.636 898.175 261.986C897.55 262.243 896.319 261.471 895.363 260.037C894.407 258.603 893.985 257.132 894.389 256.782C894.794 256.433 895.805 257.113 896.632 258.235L925.054 241.59L940.696 252.51L963.548 237.428C962.942 236.399 962.777 235.553 963.089 235.424C963.402 235.296 964.413 235.976 965.24 237.097C965.846 238.127 966.453 239.157 966.048 239.506Z" fill="url(#paint6_radial)"/>
<path d="M982.754 262.783C982.442 262.911 981.872 262.415 981.174 261.606L909.546 319.814L913.551 337.54L889.007 359.167L869.32 348.634L832.863 377.729L838.391 416.03L792.832 457.649L752.484 442.65L610.056 557.08L605.376 638.521L605.32 639.275L575.812 666.603C577.098 669.729 576.914 673.278 574.8 675.246C572.281 677.563 568.255 676.663 565.774 673.298C563.293 669.933 563.275 665.005 565.794 662.688C567.908 660.72 571.052 661.253 573.551 663.331L602.251 636.701L606.931 555.26L606.894 554.727L751.767 440.02L792.116 455.019L807.449 441.208L799.352 371.794L799.223 371.482L837.39 343.876C836.526 342.221 836.324 340.842 837.041 340.364C837.758 339.886 839.431 340.842 840.736 342.68C842.041 344.519 842.5 346.523 841.783 347.001C841.066 347.479 839.742 346.928 838.787 345.494L801.153 373.063L808.975 440.031L836.994 414.412L831.466 376.111L868.548 346.758L888.235 357.292L912.283 336.234L908.278 318.509L980.347 260.485C979.74 259.455 979.575 258.609 979.667 258.388C979.979 258.26 980.99 258.94 981.817 260.061C982.773 261.496 983.159 262.433 982.754 262.783Z" fill="url(#paint7_radial)"/>
</g>
<defs>
<radialGradient id="paint0_radial" cx="0" cy="0" r="1" gradientUnits="userSpaceOnUse" gradientTransform="translate(571.541 395.181) rotate(144.211) scale(478.87 478.785)">
<stop offset="0.1757" stop-color="#BDDBFF"/>
<stop offset="0.4767" stop-color="#6EAFFB"/>
<stop offset="0.5888" stop-color="#1A83FF"/>
<stop offset="0.6973" stop-color="#00516E"/>
<stop offset="0.7957" stop-color="#002E3F"/>
<stop offset="0.8821" stop-color="#00151C"/>
<stop offset="0.9531" stop-color="#001120"/>
<stop offset="1" stop-color="#001226"/>
</radialGradient>
<radialGradient id="paint1_radial" cx="0" cy="0" r="1" gradientUnits="userSpaceOnUse" gradientTransform="translate(571.541 395.181) rotate(144.211) scale(478.868 478.784)">
<stop offset="0.1757" stop-color="#B0D5FF"/>
<stop offset="0.4767" stop-color="#6EAFFB"/>
<stop offset="0.5888" stop-color="#268AFF"/>
<stop offset="0.6973" stop-color="#00516E"/>
<stop offset="0.7957" stop-color="#002E3F"/>
<stop offset="0.8821" stop-color="#000E29"/>
<stop offset="0.9531" stop-color="#000F35"/>
<stop offset="1" stop-color="#001226"/>
</radialGradient>
<radialGradient id="paint2_radial" cx="0" cy="0" r="1" gradientUnits="userSpaceOnUse" gradientTransform="translate(571.54 395.18) rotate(144.211) scale(478.869 478.784)">
<stop offset="0.1757" stop-color="#B8D9FF"/>
<stop offset="0.4767" stop-color="#6EAFFB"/>
<stop offset="0.5888" stop-color="#3391FF"/>
<stop offset="0.6973" stop-color="#00516E"/>
<stop offset="0.7957" stop-color="#002E3F"/>
<stop offset="0.8821" stop-color="#011B42"/>
<stop offset="0.9531" stop-color="#01122B"/>
<stop offset="1" stop-color="#00162F"/>
</radialGradient>
<radialGradient id="paint3_radial" cx="0" cy="0" r="1" gradientUnits="userSpaceOnUse" gradientTransform="translate(571.54 395.179) rotate(144.211) scale(478.871 478.786)">
<stop offset="0.1757" stop-color="#C6E0FF"/>
<stop offset="0.4767" stop-color="#6EAFFB"/>
<stop offset="0.5888" stop-color="#268AFF"/>
<stop offset="0.6973" stop-color="#1B84FF"/>
<stop offset="0.7957" stop-color="#13366C"/>
<stop offset="0.8821" stop-color="#162856"/>
<stop offset="0.9531" stop-color="#001857"/>
<stop offset="1" stop-color="#001330"/>
</radialGradient>
<radialGradient id="paint4_radial" cx="0" cy="0" r="1" gradientUnits="userSpaceOnUse" gradientTransform="translate(571.541 395.179) rotate(144.211) scale(478.87 478.786)">
<stop offset="0.1757" stop-color="#ACD2FF"/>
<stop offset="0.4767" stop-color="#6EAFFB"/>
<stop offset="0.5888" stop-color="#2489FF"/>
<stop offset="0.6973" stop-color="#22367D"/>
<stop offset="0.7957" stop-color="#002E3F"/>
<stop offset="0.8821" stop-color="#00336F"/>
<stop offset="0.9531" stop-color="#001F4E"/>
<stop offset="1" stop-color="#001731"/>
</radialGradient>
<radialGradient id="paint5_radial" cx="0" cy="0" r="1" gradientUnits="userSpaceOnUse" gradientTransform="translate(571.541 395.179) rotate(144.211) scale(478.871 478.786)">
<stop offset="0.1757" stop-color="#C5E0FF"/>
<stop offset="0.4767" stop-color="#6EAFFB"/>
<stop offset="0.5888" stop-color="#3C96FF"/>
<stop offset="0.6973" stop-color="#1C85FF"/>
<stop offset="0.7957" stop-color="#0F4B92"/>
<stop offset="0.8821" stop-color="#092753"/>
<stop offset="0.9531" stop-color="#002950"/>
<stop offset="1" stop-color="#001329"/>
</radialGradient>
<radialGradient id="paint6_radial" cx="0" cy="0" r="1" gradientUnits="userSpaceOnUse" gradientTransform="translate(571.541 395.179) rotate(144.211) scale(478.872 478.787)">
<stop offset="0.1757" stop-color="#C1DEFF"/>
<stop offset="0.4767" stop-color="#6EAFFB"/>
<stop offset="0.5888" stop-color="#308FFF"/>
<stop offset="0.6973" stop-color="#0D7CFF"/>
<stop offset="0.7957" stop-color="#13366C"/>
<stop offset="0.8821" stop-color="#041339"/>
<stop offset="0.9531" stop-color="#001431"/>
<stop offset="1" stop-color="#001731"/>
</radialGradient>
<radialGradient id="paint7_radial" cx="0" cy="0" r="1" gradientUnits="userSpaceOnUse" gradientTransform="translate(571.541 395.181) rotate(144.211) scale(478.869 478.784)">
<stop offset="0.1757" stop-color="#B3D6FF"/>
<stop offset="0.4767" stop-color="#6EAFFB"/>
<stop offset="0.5888" stop-color="#2D8EFF"/>
<stop offset="0.6973" stop-color="#00516E"/>
<stop offset="0.7957" stop-color="#002E3F"/>
<stop offset="0.8821" stop-color="#00151C"/>
<stop offset="0.9531" stop-color="#000E28"/>
<stop offset="1" stop-color="#041B37"/>
</radialGradient>
<clipPath id="clip0">
<rect width="734.575" height="948.102" fill="white" transform="matrix(-0.923078 -0.384613 -0.384613 0.923078 1042.72 237.527)"/>
</clipPath>
</defs>
</svg>
