<svg width="34" height="42" viewBox="0 0 34 42" fill="none" xmlns="http://www.w3.org/2000/svg">
<path d="M33.92 16.2601C33.6392 13.3379 32.6065 10.5382 30.9224 8.1337C29.2383 5.72917 26.9602 3.80173 24.31 2.53905C21.6598 1.27638 18.7278 0.721509 15.7994 0.928475C12.8711 1.13544 10.0463 2.09719 7.60001 3.72007C5.4984 5.12536 3.73411 6.97866 2.43389 9.14685C1.13367 11.315 0.329796 13.7443 0.0800062 16.2601C-0.165029 18.7594 0.149354 21.2819 1.00035 23.6446C1.85134 26.0073 3.2176 28.151 5.00001 29.9201L15.6 40.5401C15.7859 40.7275 16.0071 40.8763 16.2509 40.9778C16.4946 41.0794 16.756 41.1317 17.02 41.1317C17.284 41.1317 17.5454 41.0794 17.7892 40.9778C18.0329 40.8763 18.2541 40.7275 18.44 40.5401L29 29.9201C30.7824 28.151 32.1487 26.0073 32.9997 23.6446C33.8507 21.2819 34.165 18.7594 33.92 16.2601ZM26.2 27.1001L17 36.3001L7.80001 27.1001C6.44419 25.7442 5.40561 24.1047 4.75894 22.2996C4.11227 20.4944 3.87358 18.5685 4.06001 16.6601C4.24764 14.7223 4.86353 12.8504 5.86315 11.1798C6.86276 9.50912 8.22112 8.08148 9.84001 7.00007C11.9619 5.59054 14.4526 4.83866 17 4.83866C19.5474 4.83866 22.0381 5.59054 24.16 7.00007C25.774 8.0773 27.1293 9.49863 28.1287 11.1619C29.1281 12.8253 29.7467 14.6893 29.94 16.6201C30.1325 18.5349 29.8968 20.4686 29.25 22.2812C28.6031 24.0937 27.5613 25.7397 26.2 27.1001ZM17 9.00007C15.22 9.00007 13.4799 9.52791 11.9999 10.5168C10.5198 11.5058 9.36628 12.9114 8.68509 14.5559C8.0039 16.2005 7.82567 18.0101 8.17294 19.7559C8.52021 21.5017 9.37737 23.1054 10.636 24.364C11.8947 25.6227 13.4984 26.4799 15.2442 26.8271C16.99 27.1744 18.7996 26.9962 20.4442 26.315C22.0887 25.6338 23.4943 24.4802 24.4832 23.0002C25.4722 21.5202 26 19.7801 26 18.0001C25.9947 15.6147 25.0448 13.3286 23.3581 11.6419C21.6714 9.95526 19.3853 9.00535 17 9.00007ZM17 23.0001C16.0111 23.0001 15.0444 22.7068 14.2222 22.1574C13.3999 21.608 12.759 20.8271 12.3806 19.9135C12.0022 18.9999 11.9032 17.9945 12.0961 17.0246C12.289 16.0547 12.7652 15.1638 13.4645 14.4645C14.1637 13.7653 15.0546 13.2891 16.0246 13.0961C16.9945 12.9032 17.9998 13.0022 18.9134 13.3807C19.8271 13.7591 20.6079 14.4 21.1574 15.2222C21.7068 16.0445 22 17.0112 22 18.0001C22 19.3261 21.4732 20.5979 20.5355 21.5356C19.5979 22.4733 18.3261 23.0001 17 23.0001Z" fill="#F1F1F1"/>
</svg>
