<svg width="145" height="62" viewBox="0 0 145 62" fill="none" xmlns="http://www.w3.org/2000/svg">
<g clip-path="url(#clip0)">
<path d="M26.2036 -0.000215509C28.39 -0.000215509 30.5599 -0.000215509 32.7463 -0.000215509C35.3303 0.0165006 37.3511 1.5711 38.0467 4.07851C40.6141 13.2556 43.1815 22.4328 45.7324 31.6099C47.8525 39.1823 49.9727 46.7547 52.0597 54.3271C53.0039 57.7372 51.48 60.6959 48.366 61.4649C47.7366 61.6153 47.0575 61.6153 46.3949 61.632C43.5791 61.6487 40.7632 61.5819 37.9473 61.6487C35.3468 61.7156 33.3757 60.5288 31.7525 58.6733C29.5495 56.1659 28.5888 53.0901 28.1084 49.8639C27.8434 48.1588 27.7771 46.4371 27.6446 44.7153C27.6115 44.264 27.479 44.0968 27.0152 44.0634C24.7791 43.9297 24.8288 43.9297 24.7128 46.1529C24.4975 49.9642 23.8681 53.6752 21.8804 57.0184C20.6216 59.1413 18.8658 60.6959 16.4806 61.4481C16.199 61.5317 15.8843 61.6153 15.5861 61.6153C11.9752 61.6153 8.34774 61.6989 4.73682 61.5651C1.58969 61.4481 -0.696124 58.0213 0.165196 54.979C0.513037 53.7754 0.82775 52.5719 1.15903 51.3516C2.99762 44.7655 4.85277 38.1961 6.67479 31.6099C8.56307 24.9736 10.4017 18.3039 12.2568 11.6342C12.9856 9.00976 13.7144 6.38533 14.4764 3.77762C15.1389 1.52095 17.1431 0.0332167 19.4952 0.0165006C21.7313 -0.0169316 23.9675 -0.000215509 26.2036 -0.000215509ZM28.771 34.5018C28.7544 33.8666 28.7875 33.2147 28.7544 32.5794C28.655 30.958 28.1747 29.4703 27.0152 28.2834C26.4686 27.7151 25.9717 27.6649 25.4085 28.2667C24.5306 29.1694 23.9178 30.2392 23.8018 31.4929C23.6527 33.1311 23.6693 34.7693 23.5699 36.4074C23.5534 36.7083 23.4043 37.1597 23.1724 37.2599C22.1289 37.7949 21.8142 38.2629 21.8142 39.3829C21.8142 39.9011 22.0129 40.1017 22.543 40.1518C22.9902 40.202 23.5368 40.3524 23.8515 40.6533C24.365 41.1548 24.895 41.4055 25.6073 41.3554C26.1208 41.3052 26.6674 41.4055 27.1808 41.322C27.5287 41.2718 27.9428 41.1381 28.1912 40.8873C28.6882 40.4026 29.1685 40.0348 29.9139 40.1017C30.1126 40.1184 30.4439 39.9178 30.5267 39.7172C30.8083 39.0486 30.3445 37.6611 29.6654 37.494C28.7544 37.26 28.7047 36.6916 28.7544 35.9394C28.8041 35.4379 28.771 34.9698 28.771 34.5018Z" fill="url(#paint0_linear)"/>
<path d="M75.6637 50.2821C76.0281 50.4158 76.26 50.4994 76.4753 50.583C78.2145 51.2182 79.1255 52.5388 79.3077 54.3441C79.6887 58.1219 77.7839 60.6962 74.057 61.3649C73.1625 61.532 72.2515 61.5989 71.3405 61.6156C68.9885 61.649 66.653 61.6156 64.3009 61.6323C63.7708 61.6323 63.4893 61.5487 63.4893 60.9135C63.5058 54.2104 63.5058 47.4905 63.5058 40.7873C63.5058 40.4029 63.5224 40.0351 64.0524 40.0518C67.4149 40.1521 70.7773 40.1688 74.1232 40.4196C75.7631 40.5366 77.2869 41.2554 78.1648 42.8267C79.7384 45.6016 78.7114 48.7609 75.6637 50.2821ZM68.0609 57.9381C69.7007 57.8378 71.1914 57.8545 72.6491 57.6205C74.057 57.3864 74.6699 56.4002 74.6533 54.879C74.6367 53.5919 73.9742 52.6558 72.6159 52.4385C71.2577 52.2379 69.8829 52.2546 68.5081 52.2044C68.359 52.2044 68.094 52.4886 68.094 52.6558C68.0443 54.3608 68.0609 56.0491 68.0609 57.9381ZM70.0154 48.6606C70.7442 48.5938 71.5062 48.577 72.2184 48.4433C73.6263 48.1758 74.1895 47.4236 74.1564 46.0028C74.1232 44.8661 73.4276 44.0971 72.0859 43.9467C70.943 43.8129 69.7835 43.8129 68.624 43.8297C68.4253 43.8297 68.094 44.1807 68.0774 44.398C68.0112 45.1335 68.0443 45.9025 68.0443 46.638C68.0609 48.5938 68.0609 48.5938 70.0154 48.6606Z" fill="#F1F1F1"/>
<path d="M108.841 61.9997C104.601 61.9328 101.735 59.5592 101.056 55.3467C100.576 52.388 100.841 49.5629 102.878 47.1558C103.972 45.8687 105.413 45.2 107.036 44.9493C111.342 44.2639 114.953 45.9523 116.229 49.9808C117.007 52.4214 116.941 54.8787 116.063 57.2691C115.268 59.4087 113.777 60.863 111.591 61.4982C110.696 61.7657 109.752 61.8493 108.841 61.9997ZM112.27 53.2572C112.071 52.3044 111.955 51.2011 111.591 50.1647C111.111 48.794 109.935 48.4095 108.576 48.443C107.251 48.4931 106.241 49.145 105.843 50.3653C105.214 52.3211 105.197 54.327 105.827 56.2828C106.29 57.7204 107.351 58.3389 108.974 58.3054C110.398 58.272 111.342 57.6034 111.757 56.1324C112.022 55.2631 112.088 54.3437 112.27 53.2572Z" fill="#F1F1F1"/>
<path d="M82.306 53.9593C82.3225 50.9337 82.7532 48.7105 84.4427 47.0222C86.9935 44.498 90.1075 44.2807 93.2878 45.3338C96.2362 46.3201 97.7269 48.6771 97.9919 51.7027C98.141 53.3074 98.0747 55.0125 97.6938 56.5671C96.9815 59.4255 95.027 61.2141 92.1118 61.7156C88.2524 62.401 84.9231 61.2141 83.2501 57.8375C82.5379 56.4166 82.306 54.862 82.306 53.9593ZM93.6853 53.1403C93.5362 52.3379 93.4534 51.3516 93.1553 50.4323C92.7081 49.0114 91.7142 48.4096 90.1738 48.4263C88.6499 48.443 87.6892 49.095 87.242 50.5158C86.6788 52.3713 86.6623 54.2602 87.242 56.099C87.7555 57.7372 88.8487 58.4058 90.6044 58.2721C92.0124 58.1718 93.0393 57.2357 93.3375 55.6978C93.5031 54.9289 93.5694 54.1265 93.6853 53.1403Z" fill="#F1F1F1"/>
<path d="M119.426 57.3863C120.784 57.7708 121.96 58.1887 123.152 58.406C124.097 58.5732 125.074 58.5565 126.034 58.523C126.614 58.5063 127.177 58.2556 127.343 57.5702C127.525 56.8347 127.227 56.2998 126.598 55.9822C125.123 55.2467 123.616 54.5446 122.142 53.8091C119.939 52.6891 119.011 50.75 119.525 48.4432C119.956 46.5042 121.363 45.5848 123.103 45.1669C125.819 44.5149 128.469 44.8325 131.037 45.8857C131.236 45.9692 131.517 46.3203 131.484 46.4373C131.136 47.4235 130.705 48.3764 130.391 49.1453C128.701 48.811 127.177 48.5101 125.654 48.2092C125.521 48.1758 125.372 48.1925 125.239 48.2092C124.66 48.2928 124.03 48.3764 123.881 49.0784C123.732 49.7638 124.212 50.1984 124.742 50.4492C126.034 51.0676 127.343 51.6527 128.652 52.2211C132.163 53.7422 132.296 56.8514 131.302 59.0914C130.656 60.529 129.397 61.2645 127.956 61.5821C125.355 62.1671 122.755 62.0668 120.187 61.2812C119.575 61.0973 119.359 60.763 119.392 60.1278C119.459 59.2418 119.426 58.3559 119.426 57.3863Z" fill="#F1F1F1"/>
<path d="M54.3129 50.7833C54.3129 47.7744 54.3129 44.7655 54.3129 41.7566C54.3129 40.2187 54.5945 39.9346 56.1515 39.9346C57.0294 39.9346 57.9238 39.9346 58.8017 39.9346C59.8784 39.9346 60.2759 40.3358 60.2925 41.4557C60.309 43.9297 60.2925 46.4037 60.2925 48.8944C60.2925 52.5218 60.2925 56.1325 60.2925 59.7599C60.2925 61.4315 60.044 61.6655 58.3711 61.6655C57.5097 61.6655 56.665 61.6822 55.8037 61.6655C54.7105 61.6488 54.3129 61.2476 54.3129 60.1443C54.3129 57.0184 54.3129 53.8925 54.3129 50.7833Z" fill="url(#paint1_linear)"/>
<path d="M144.983 57.8713C144.983 58.9244 145.017 59.8605 144.95 60.7966C144.934 61.0139 144.619 61.3148 144.387 61.3816C142.515 62.0001 140.594 62.1506 138.689 61.5989C137.099 61.1476 136.188 59.944 135.989 58.3393C135.791 56.8349 135.791 55.297 135.757 53.7591C135.724 52.2547 135.724 50.7502 135.757 49.2458C135.774 48.6106 135.559 48.3765 134.946 48.4601C134.913 48.4601 134.896 48.4601 134.863 48.4601C134.449 48.3431 133.803 48.3598 133.67 48.1091C133.306 47.3736 133.621 46.4709 134.349 46.17C135.94 45.5181 136.536 44.1975 136.983 42.6931C137.099 42.2919 137.364 41.6901 137.629 41.64C138.408 41.5062 139.219 41.6065 140.014 41.6567C140.097 41.6567 140.213 42.0244 140.213 42.225C140.23 42.9438 140.246 43.6793 140.213 44.3981C140.18 44.9665 140.412 45.1169 140.942 45.1002C141.985 45.0668 143.045 45.1169 144.089 45.0835C144.685 45.0668 144.868 45.2841 144.834 45.8524C144.801 46.4876 144.801 47.1395 144.834 47.7748C144.851 48.2762 144.652 48.4768 144.155 48.4601C143.079 48.4434 142.002 48.4768 140.925 48.4434C140.395 48.4267 140.197 48.6273 140.213 49.1789C140.23 51.5693 140.213 53.9597 140.23 56.3501C140.246 57.6707 140.892 58.2892 142.184 58.2892C142.615 58.2892 143.062 58.239 143.493 58.1721C143.956 58.1387 144.371 58.0217 144.983 57.8713Z" fill="#F1F1F1"/>
<path d="M57.5925 37.4607C55.8367 37.4774 54.3294 36.0231 54.3128 34.2679C54.2963 32.5295 55.7704 30.9749 57.4931 30.9581C59.2323 30.9414 60.7396 32.4125 60.7562 34.1676C60.7727 35.9396 59.3482 37.4273 57.5925 37.4607Z" fill="#6EAFFB"/>
</g>
<defs>
<linearGradient id="paint0_linear" x1="26.1596" y1="-0.00439453" x2="26.1596" y2="61.6514" gradientUnits="userSpaceOnUse">
<stop offset="0.427083" stop-color="#6EAFFB"/>
<stop offset="1" stop-color="#4393F0"/>
</linearGradient>
<linearGradient id="paint1_linear" x1="57.3064" y1="39.9346" x2="57.3064" y2="61.6729" gradientUnits="userSpaceOnUse">
<stop offset="0.427083" stop-color="#6EAFFB"/>
<stop offset="1" stop-color="#4393F0"/>
</linearGradient>
<clipPath id="clip0">
<rect width="145" height="62" fill="white"/>
</clipPath>
</defs>
</svg>
