<svg width="36" height="40" viewBox="0 0 36 40" fill="none" xmlns="http://www.w3.org/2000/svg">
<path d="M34.42 13.64L22 1.56002C20.9479 0.559726 19.5517 0.00192323 18.1 0.00192318C16.6483 0.00192314 15.2521 0.559726 14.2 1.56002L1.78 13.56C1.22816 14.0418 0.784329 14.6346 0.477579 15.2998C0.170828 15.965 0.00808074 16.6875 -5.52416e-07 17.42L-1.09665e-06 34.58C0.0210798 36.0353 0.618086 37.4228 1.66023 38.4387C2.70238 39.4546 4.1047 40.0161 5.56 40L30.44 40C31.8953 40.0161 33.2976 39.4546 34.3398 38.4387C35.3819 37.4228 35.9789 36.0353 36 34.58L36 17.42C35.9984 16.717 35.8581 16.0211 35.5869 15.3725C35.3158 14.7238 34.9192 14.1351 34.42 13.64ZM16.88 4.44002C17.186 4.16034 17.5855 4.00526 18 4.00526C18.4145 4.00526 18.814 4.16034 19.12 4.44002L30 15L19.06 25.56C18.754 25.8397 18.3545 25.9948 17.94 25.9948C17.5255 25.9948 17.126 25.8397 16.82 25.56L6 15L16.88 4.44002ZM32 34.58C31.9743 34.9726 31.7974 35.3399 31.5064 35.6047C31.2155 35.8695 30.8332 36.0112 30.44 36L5.56 36C5.16676 36.0112 4.78449 35.8695 4.49357 35.6047C4.20264 35.3399 4.02572 34.9726 4 34.58L4 18.7L12.1 26.5L8.78 29.7C8.4075 30.0748 8.19841 30.5817 8.19841 31.11C8.19841 31.6384 8.4075 32.1453 8.78 32.52C8.96589 32.715 9.18927 32.8705 9.43672 32.977C9.68416 33.0835 9.95059 33.139 10.22 33.14C10.7349 33.138 11.2292 32.9374 11.6 32.58L15.14 29.18C16.0192 29.7173 17.0296 30.0016 18.06 30.0016C19.0904 30.0016 20.1008 29.7173 20.98 29.18L24.52 32.58C24.8908 32.9374 25.3851 33.138 25.9 33.14C26.1694 33.139 26.4358 33.0835 26.6833 32.977C26.9307 32.8705 27.1541 32.715 27.34 32.52C27.7125 32.1453 27.9216 31.6384 27.9216 31.11C27.9216 30.5817 27.7125 30.0748 27.34 29.7L24 26.5L32 18.7L32 34.58Z" fill="#F1F1F1"/>
</svg>
