<svg width="40" height="40" viewBox="0 0 40 40" fill="none" xmlns="http://www.w3.org/2000/svg">
<path d="M32 17.6399C31.4696 17.6399 30.9609 17.8507 30.5858 18.2257C30.2107 18.6008 30 19.1095 30 19.6399V33.9999C30 34.5304 29.7893 35.0391 29.4142 35.4142C29.0391 35.7892 28.5304 35.9999 28 35.9999H6C5.46957 35.9999 4.96086 35.7892 4.58579 35.4142C4.21071 35.0391 4 34.5304 4 33.9999V11.9999C4 11.4695 4.21071 10.9608 4.58579 10.5857C4.96086 10.2107 5.46957 9.99994 6 9.99994H20.36C20.8904 9.99994 21.3991 9.78923 21.7742 9.41415C22.1493 9.03908 22.36 8.53037 22.36 7.99994C22.36 7.46951 22.1493 6.9608 21.7742 6.58573C21.3991 6.21065 20.8904 5.99994 20.36 5.99994H6C4.4087 5.99994 2.88258 6.63208 1.75736 7.7573C0.632141 8.88252 0 10.4086 0 11.9999V33.9999C0 35.5912 0.632141 37.1174 1.75736 38.2426C2.88258 39.3678 4.4087 39.9999 6 39.9999H28C29.5913 39.9999 31.1174 39.3678 32.2426 38.2426C33.3679 37.1174 34 35.5912 34 33.9999V19.6399C34 19.1095 33.7893 18.6008 33.4142 18.2257C33.0391 17.8507 32.5304 17.6399 32 17.6399ZM39.84 1.23994C39.6371 0.75124 39.2487 0.362889 38.76 0.159939C38.5196 0.0574569 38.2614 0.00309894 38 -6.10352e-05H26C25.4696 -6.10352e-05 24.9609 0.210653 24.5858 0.585725C24.2107 0.960798 24 1.46951 24 1.99994C24 2.53037 24.2107 3.03908 24.5858 3.41415C24.9609 3.78923 25.4696 3.99994 26 3.99994H33.18L12.58 24.5799C12.3925 24.7659 12.2438 24.9871 12.1422 25.2308C12.0407 25.4745 11.9884 25.7359 11.9884 25.9999C11.9884 26.264 12.0407 26.5254 12.1422 26.7691C12.2438 27.0128 12.3925 27.234 12.58 27.4199C12.7659 27.6074 12.9871 27.7562 13.2308 27.8577C13.4746 27.9593 13.736 28.0115 14 28.0115C14.264 28.0115 14.5254 27.9593 14.7692 27.8577C15.0129 27.7562 15.2341 27.6074 15.42 27.4199L36 6.81994V13.9999C36 14.5304 36.2107 15.0391 36.5858 15.4142C36.9609 15.7892 37.4696 15.9999 38 15.9999C38.5304 15.9999 39.0391 15.7892 39.4142 15.4142C39.7893 15.0391 40 14.5304 40 13.9999V1.99994C39.9968 1.73858 39.9425 1.48038 39.84 1.23994Z" fill="#F1F1F1"/>
</svg>
